<svg width="120" height="57" viewBox="0 0 120 57" fill="none" xmlns="http://www.w3.org/2000/svg">
<g clip-path="url(#clip0_214_2828)">
<path d="M120 57C120 57 99.3042 38.7959 59.8625 38.7959C21.25 38.7959 0 57 0 57V0H120V57Z" fill="#ED1C24"/>
<path d="M55.8958 7.32233L52.1042 15.0153L48.8958 7.36219H41.3125C41.5625 7.92023 41.6875 8.39855 41.6458 8.79715V31.7566C41.6042 32.0755 41.5625 32.3545 41.4375 32.5139L48.1042 31.6769C47.9792 31.5972 47.8958 31.2384 47.8958 30.6405V22.9076L51.9375 31.3181L56.2292 22.6685V30.0825C56.1875 30.3615 56.1042 30.6006 55.8958 30.7999H62.6458C62.3542 30.4412 62.1375 30.0386 62.1458 29.7237V8.55799C62.2292 8.15939 62.3542 7.72093 62.6042 7.32233H55.8958Z" fill="white"/>
<path d="M39.2291 12.2251C38.4791 9.03633 36.1458 7.40206 32.1458 7.32234C27.9791 7.28248 25.4375 8.83703 24.5208 12.0657V36.4202C24.5208 36.6594 24.4375 36.9384 24.1458 37.2573L30.4791 35.8223C30.1875 35.344 30.0208 35.077 29.9791 34.4671V29.8832C30.7291 28.9664 31.5208 28.4881 32.3958 28.4482C33.2291 28.3685 33.6875 28.5279 33.7708 28.8867V34.1084C33.7708 34.2678 33.7291 34.4671 33.6875 34.786L39.7291 33.2314C39.4375 32.8328 39.2708 32.4342 39.2291 31.9958V12.2251ZM31.8125 12.823C32.3541 12.823 32.8541 13.0223 33.2291 13.3412C33.6458 13.7398 33.8541 14.2181 33.8541 14.6965V21.672C33.8541 22.1902 33.6458 22.6286 33.2291 22.9874C32.8541 23.386 32.2291 23.5853 31.4375 23.5853C30.6458 23.665 30.1458 23.4258 30.0625 22.7881V14.1783C30.3541 13.3014 30.9375 12.823 31.8125 12.823Z" fill="white"/>
<path d="M14.3958 12.7834C15.5416 12.7834 16.2 13.3654 16.3125 14.0589V20.7953C16.3583 21.7519 17.0875 21.5327 18.7541 20.8551C20.4208 20.1376 21.3958 19.7589 21.6458 19.3603V11.8666C21.1458 8.83726 18.7291 7.32257 14.5208 7.32257C10.2708 7.28271 7.68748 9.196 6.77081 13.1422L6.77498 37.1499C7.14165 41.1359 9.21248 42.7981 12.2958 42.8818C17.0458 42.8419 21.15 39.9401 21.8125 34.7902V26.6986C20.8208 26.7544 19.9083 26.9696 18.7 27.4878C17.4916 28.006 16.825 28.4166 16.1458 29.0503V35.5475C15.7291 36.5839 14.9416 36.8829 13.8583 36.8031C12.9 36.6835 12.5041 36.3288 12.5208 35.428V14.3021C12.5541 13.8317 13.2166 12.7834 14.3958 12.7834Z" fill="white"/>
<path d="M79.7292 19.5195V11.2685C79.4375 8.87687 78.1042 7.56149 75.6042 7.32233H64.4375C64.6875 7.48177 64.8125 7.80065 64.8125 8.23911V30.4412C64.7708 30.7601 64.6875 30.9993 64.5208 31.2384H70.9375C70.6875 30.8398 70.5208 30.5209 70.4792 30.202C70.4792 30.1622 70.4792 30.1223 70.4792 30.0426V24.1433C70.4792 23.9041 70.6042 23.7447 70.8958 23.665H74.9792C77.7708 23.5853 79.3542 22.23 79.7292 19.5195ZM71.7708 12.1055H72.8958C73.2292 12.1055 73.5208 12.2251 73.7292 12.4244C74.0208 12.7034 74.1458 12.9825 74.1458 13.3013V17.5544C74.1458 17.8733 74.0208 18.1523 73.7292 18.3516C73.5208 18.6306 73.2292 18.7502 72.8958 18.7502H71.7708C71.4375 18.7502 71.2292 18.6306 71.0208 18.3516C70.8125 18.1523 70.6875 17.8733 70.6875 17.5544V13.3013C70.6875 12.9825 70.8125 12.7034 71.0208 12.4244C71.2292 12.2251 71.4375 12.1055 71.7708 12.1055Z" fill="white"/>
<path d="M94.8542 11.3482L94.8958 7.72093C94.7708 7.44191 94.6458 7.32233 94.3958 7.32233H81.6042C81.8542 7.52163 82.0208 7.80065 82.0625 8.07967V32.0755C82.0208 32.4342 81.9375 32.6335 81.7292 32.7132L94.7292 36.1013V30.5209C92.4375 30.0027 90.1875 29.365 87.8958 28.5279V23.5853C87.8958 23.3461 87.9042 23.099 88.2833 23.099C89.3667 23.1388 94.0625 24.1433 94.3542 24.1034C94.5625 24.0636 94.7292 23.944 94.7708 23.665V19.097C94.7708 19.097 94.7958 18.8379 94.5083 18.7901C92.45 18.4313 90.4208 18.24 88.2583 17.7577C88.0875 17.7099 87.9375 17.662 87.8958 17.4468V12.5041C87.8958 12.1853 88.0208 11.986 88.3125 11.9062H94.1042C94.4375 11.9062 94.7292 11.7069 94.8542 11.3482Z" fill="white"/>
<path d="M112.896 21.0342V12.1454C112.812 9.03631 110.896 7.44191 107.146 7.32233H97.0625C97.3542 7.56149 97.4792 7.84051 97.5625 8.19925V36.1412C97.4792 36.5398 97.3958 36.779 97.2292 36.8188L103.396 38.9314C103.187 38.772 103.062 38.493 103.062 38.0944V27.372C103.283 26.786 103.437 26.5748 104.104 26.5349C105.979 26.7741 107.021 27.7706 107.146 29.4846V39.7286C107.146 40.1272 107.062 40.3664 106.937 40.486L113.229 43.1965C113.062 42.9972 112.979 42.758 112.979 42.4391V28.9265C112.979 27.2923 112.271 25.937 110.896 24.8209C111.812 24.1433 112.867 22.9993 112.896 21.0342ZM103.479 12.7034C103.687 12.4244 104.021 12.3048 104.354 12.3447L105.604 12.4643C106.021 12.5041 106.354 12.6636 106.646 12.9825C106.896 13.3013 107.062 13.6601 107.062 14.0986V19.5992C107.062 19.9979 106.896 20.3566 106.646 20.5958C106.354 20.8748 106.021 20.9944 105.604 20.9944L104.354 20.8748C104.021 20.8748 103.687 20.6755 103.479 20.3566C103.229 20.0377 103.104 19.679 103.104 19.2804V13.7398C103.104 13.3013 103.229 12.9825 103.479 12.7034Z" fill="white"/>
</g>
<defs>
<clipPath id="clip0_214_2828">
<rect width="120" height="57" fill="white"/>
</clipPath>
</defs>
</svg>
