<svg width="28" height="27" viewBox="0 0 28 27" fill="none" xmlns="http://www.w3.org/2000/svg">
<path d="M28 13.3348C28 20.0695 22.7586 25.6371 15.9497 26.5406C15.313 26.6247 14.6617 26.6686 14.0005 26.6686C13.2373 26.6686 12.4878 26.6107 11.758 26.4986C5.09127 25.4764 0 19.9714 0 13.3348C0 5.97038 6.26844 0 13.9995 0C21.7306 0 28 5.97038 28 13.3348Z" fill="#1877F2"/>
<path d="M15.9498 10.7076V13.6125H19.7226L19.1252 17.5255H15.9498V26.5408C15.3131 26.6249 14.6618 26.6688 14.0006 26.6688C13.2374 26.6688 12.4879 26.6109 11.7581 26.4988V17.5255H8.27856V13.6125H11.7581V10.0583C11.7581 7.85325 13.6347 6.06494 15.9508 6.06494V6.06681C15.9576 6.06681 15.9635 6.06494 15.9704 6.06494H19.7236V9.44909H17.2712C16.5423 9.44909 15.9508 10.0125 15.9508 10.7067L15.9498 10.7076Z" fill="white"/>
</svg>
