<svg width="28" height="27" viewBox="0 0 28 27" fill="none" xmlns="http://www.w3.org/2000/svg">
<path d="M14.0319 0H13.9681C6.25374 0 0 5.95639 0 13.304V13.3647C0 20.7123 6.25374 26.6686 13.9681 26.6686H14.0319C21.7463 26.6686 28 20.7123 28 13.3647V13.304C28 5.95639 21.7463 0 14.0319 0Z" fill="url(#paint0_linear_249_1438)"/>
<path d="M18.3317 5.42676H9.66772C7.27414 5.42676 5.3269 7.28141 5.3269 9.56118V17.1106C5.3269 19.3904 7.27414 21.245 9.66772 21.245H18.3317C20.7253 21.245 22.6725 19.3904 22.6725 17.1106V9.56118C22.6725 7.28141 20.7253 5.42676 18.3317 5.42676ZM6.85821 9.56118C6.85821 8.08587 8.11876 6.88525 9.66772 6.88525H18.3317C19.8807 6.88525 21.1412 8.08587 21.1412 9.56118V17.1106C21.1412 18.5859 19.8807 19.7865 18.3317 19.7865H9.66772C8.11876 19.7865 6.85821 18.5859 6.85821 17.1106V9.56118Z" fill="white"/>
<path d="M13.9999 17.1817C16.2257 17.1817 18.0375 15.4569 18.0375 13.3359C18.0375 11.215 16.2267 9.49023 13.9999 9.49023C11.773 9.49023 9.96216 11.215 9.96216 13.3359C9.96216 15.4569 11.773 17.1817 13.9999 17.1817ZM13.9999 10.9497C15.3821 10.9497 16.5062 12.0204 16.5062 13.3369C16.5062 14.6534 15.3821 15.7241 13.9999 15.7241C12.6177 15.7241 11.4935 14.6534 11.4935 13.3369C11.4935 12.0204 12.6177 10.9497 13.9999 10.9497Z" fill="white"/>
<path d="M18.4119 10.1095C19.0113 10.1095 19.4998 9.6451 19.4998 9.07328C19.4998 8.50147 19.0122 8.03711 18.4119 8.03711C17.8115 8.03711 17.324 8.50147 17.324 9.07328C17.324 9.6451 17.8115 10.1095 18.4119 10.1095Z" fill="white"/>
<defs>
<linearGradient id="paint0_linear_249_1438" x1="4.09067" y1="22.7725" x2="22.9447" y2="2.97825" gradientUnits="userSpaceOnUse">
<stop stop-color="#FAAD4F"/>
<stop offset="0.35" stop-color="#DD2A7B"/>
<stop offset="0.62" stop-color="#9537B0"/>
<stop offset="1" stop-color="#515BD4"/>
</linearGradient>
</defs>
</svg>
