<svg width="143" height="51" viewBox="0 0 143 51" fill="none" xmlns="http://www.w3.org/2000/svg">
<g clip-path="url(#clip0_214_2839)">
<path d="M15.36 50.7507L5.10694 39.0684L2.41643 41.6627V50.7507H0V26.516H2.41084V38.8562L15.1866 26.516H18.0841L6.70112 37.5245L18.3078 50.7507H15.36Z" fill="#070808"/>
<path d="M41.7002 50.7507L38.2434 42.5486H27.1737L23.7057 50.7507H21.3676L31.794 26.5107H33.9699L44.4691 50.7507H41.7002ZM32.6666 29.3968L27.9568 40.7767L37.4715 40.7714L32.6666 29.3968Z" fill="#070808"/>
<path d="M91.002 50.7507L87.5452 42.5487L76.4755 42.554L73.0074 50.756H70.6693L81.0958 26.516H83.2717L93.7652 50.756H91.002V50.7507ZM81.9628 29.3968L77.253 40.7767L86.7676 40.7714L81.9628 29.3968Z" fill="#070808"/>
<path d="M64.3597 50.7507L56.8867 40.7714H56.6574C56.5847 40.7714 52.2664 40.7714 52.2049 40.7714V50.7507H49.7885V26.5054C52.5461 26.5054 55.2534 26.516 56.8084 26.516C62.6481 26.516 65.9987 29.0254 65.9987 33.4606C65.9987 37.2327 63.6605 39.6679 59.6108 40.4796L67.3187 50.7507H64.3597ZM52.2049 38.9304C52.2608 38.9304 56.3497 38.9304 56.5008 38.9304C60.9421 38.9304 63.5095 36.9356 63.5095 33.6092C63.5095 30.2085 61.0931 28.4365 56.5008 28.4365C55.6449 28.4365 53.3851 28.4312 52.2049 28.4312V38.9304Z" fill="#070808"/>
<path d="M117.018 48.8301C114.814 50.2732 112.224 50.9947 109.254 50.9947C101.949 50.9947 96.6235 45.9441 96.6235 38.7925C96.6235 31.5773 102.027 26.3091 109.254 26.3091C111.995 26.3091 114.428 26.9616 116.788 28.2561L115.726 30.1342C113.214 28.8344 111.385 28.4047 109.03 28.4047C103.246 28.4047 99.135 32.5906 99.135 38.506C99.135 44.4957 103.548 48.8991 109.64 48.8991C112 48.8991 114.131 48.2519 116.106 47.021L117.018 48.8301Z" fill="#070808"/>
<path d="M140.237 50.7507L136.78 42.5486L125.71 42.554L122.242 50.756H119.904L130.33 26.5054H132.506L143 50.7454H140.237V50.7507ZM131.198 29.3968L126.488 40.7767L136.002 40.7714L131.198 29.3968Z" fill="#070808"/>
<path d="M70.9155 9.44877C71.0106 8.8758 70.9938 8.2763 70.8651 7.6768C70.7141 6.99772 70.4344 6.29742 69.8247 5.86238C69.3716 5.54406 68.8458 5.55467 68.3536 5.68731C68.2865 5.70853 68.0404 5.7775 67.9341 5.83055C67.7663 5.91013 67.867 5.96318 67.9453 5.94196C67.9453 5.94196 67.9844 5.94196 68.0683 5.92604C68.7675 5.81463 69.4332 6.05868 69.6457 6.8757C69.8863 7.78291 69.3549 8.75908 68.5718 9.24717C67.4139 9.974 65.5736 9.61324 64.6954 8.61053C64.2255 8.08531 63.9347 7.33726 64.4717 6.76959C64.6115 6.62635 64.8185 6.52555 65.0254 6.51493C65.2604 6.49902 64.9975 6.89692 64.9527 6.97119C64.8129 7.19932 65.1876 7.45928 65.3666 7.24707C65.7582 6.76959 65.9148 6.00562 65.0814 5.86769C64.2647 5.73505 63.4872 6.39291 63.2634 7.0826C62.8719 8.26569 63.5711 9.30023 64.6003 9.93686C65.568 10.5417 66.7706 10.669 67.8726 10.4462C69.3996 10.1438 70.4624 8.74847 70.2331 7.28421C70.4065 8.14367 70.3002 9.16759 70.0708 9.84667C69.271 12.1863 65.8253 13.0988 63.6606 11.9688C62.1112 11.1571 61.5854 9.34267 61.1994 7.83065C60.724 5.9844 60.4219 4.1806 59.4654 2.48289C58.8165 1.33695 57.8153 0.530539 56.4952 0.164472C55.1192 -0.212206 52.8929 -0.0318248 52.7923 1.66588C52.7867 1.77729 52.9489 1.85156 53.0384 1.78259C53.4915 1.46958 54.034 1.1937 54.6102 1.1937C55.0912 1.1937 55.6338 1.43775 56.0365 1.65527C56.663 1.99481 57.0602 2.53595 57.4685 3.20972C57.681 3.55457 57.7426 3.71373 57.916 4.16999C58.0838 4.60502 58.218 5.05597 58.3467 5.50692C58.5984 6.40352 58.9172 7.30012 59.2249 8.1808C59.829 9.89973 60.6289 11.6982 62.2566 12.7699C64.3654 14.1652 67.3076 13.8204 69.2038 12.319C70.0317 11.6611 70.5799 10.8016 70.826 9.85728L70.8316 9.8679C70.9267 10.7221 70.6246 11.4754 70.0597 12.1492C69.5059 12.807 68.8011 13.3429 68.2194 13.9848C66.9944 15.3324 66.6308 16.4889 67.1734 17.5977C67.6544 18.5739 69.1087 18.6588 69.6961 17.7728C70.1883 17.0301 69.6961 16.2873 68.7899 16.4093C68.6333 16.4306 68.6389 16.664 68.8067 16.6534C69.9925 16.5685 69.5394 17.9479 68.6165 17.8046C67.4698 17.6349 68.0516 16.1971 68.3704 15.6189C68.8626 14.7329 69.7856 13.7832 70.4176 12.7593C71.0162 11.8627 71.5308 10.9237 70.9267 9.45939C70.9155 9.45408 70.9155 9.44877 70.9155 9.44877Z" fill="#070808"/>
<path d="M86.516 0.164472C85.1959 0.525233 84.1947 1.33695 83.5402 2.48289C82.5781 4.1806 82.2761 5.9844 81.8062 7.83065C81.4203 9.34267 80.8945 11.1518 79.345 11.9688C77.1803 13.0988 73.7347 12.1863 72.9348 9.84667C72.7054 9.1729 72.5992 8.14367 72.7726 7.28421C72.5376 8.74847 73.6004 10.1438 75.1331 10.4462C76.235 10.669 77.4376 10.5364 78.4053 9.93686C79.4345 9.30023 80.1337 8.27099 79.7422 7.0826C79.5184 6.39291 78.7409 5.73505 77.9243 5.86769C77.0908 6.00562 77.2474 6.76959 77.639 7.24707C77.8124 7.46459 78.1927 7.20463 78.0529 6.97119C78.0082 6.89692 77.7453 6.49902 77.9802 6.51493C78.1872 6.52555 78.3941 6.62635 78.534 6.76959C79.0709 7.33195 78.7801 8.08 78.3102 8.61053C77.432 9.61324 75.5917 9.97931 74.4339 9.24717C73.6508 8.75908 73.1194 7.78291 73.3599 6.8757C73.5724 6.05868 74.2381 5.81463 74.9373 5.92604C75.0212 5.94196 75.0603 5.94196 75.0603 5.94196C75.1387 5.96318 75.2449 5.91013 75.0715 5.83055C74.9653 5.7775 74.7191 5.70853 74.652 5.68731C74.1598 5.55467 73.634 5.54406 73.1809 5.86238C72.5712 6.29742 72.2915 6.99772 72.1405 7.6768C72.0062 8.2763 71.9951 8.8758 72.0901 9.44877C72.0901 9.45408 72.0845 9.45408 72.0845 9.45939C71.4804 10.9237 71.9951 11.8627 72.5936 12.7593C73.22 13.7832 74.143 14.7329 74.6408 15.6189C74.9597 16.1971 75.5414 17.6349 74.3947 17.8046C73.4718 17.9426 73.0187 16.5685 74.2045 16.6534C74.3723 16.664 74.3779 16.4306 74.2213 16.4093C73.3151 16.2873 72.8229 17.0301 73.3151 17.7728C73.9025 18.6588 75.3512 18.5739 75.8378 17.5977C76.3804 16.4889 76.0113 15.3324 74.7919 13.9848C74.2101 13.3429 73.5053 12.807 72.9516 12.1492C72.3866 11.4754 72.0845 10.7274 72.1796 9.8679L72.1852 9.85728C72.4314 10.8016 72.9795 11.6611 73.8074 12.319C75.7036 13.8204 78.6514 14.1705 80.7546 12.7699C82.3823 11.6982 83.1878 9.90503 83.7863 8.1808C84.094 7.29482 84.4184 6.40352 84.6645 5.50692C84.7932 5.05597 84.933 4.60502 85.1008 4.16999C85.2742 3.71903 85.3414 3.55457 85.5483 3.20972C85.9567 2.53595 86.3594 1.99481 86.9803 1.65527C87.3886 1.43244 87.9312 1.1884 88.4067 1.1937C88.9828 1.1937 89.5198 1.46427 89.9729 1.78259C90.0624 1.84626 90.2246 1.77729 90.219 1.66588C90.1183 -0.0318248 87.892 -0.212206 86.516 0.164472Z" fill="#070808"/>
</g>
<defs>
<clipPath id="clip0_214_2839">
<rect width="143" height="51" fill="white"/>
</clipPath>
</defs>
</svg>
