<svg width="28" height="27" viewBox="0 0 28 27" fill="none" xmlns="http://www.w3.org/2000/svg">
<path d="M14.0319 0H13.9681C6.25375 0 0 5.95639 0 13.304V13.3647C0 20.7123 6.25375 26.6686 13.9681 26.6686H14.0319C21.7463 26.6686 28 20.7123 28 13.3647V13.304C28 5.95639 21.7463 0 14.0319 0Z" fill="#007EBB"/>
<path d="M6.67777 8.86472C6.30892 8.53864 6.12549 8.13501 6.12549 7.65476C6.12549 7.17451 6.3099 6.75313 6.67777 6.42611C7.04661 6.10003 7.52141 5.93652 8.10313 5.93652C8.68485 5.93652 9.14101 6.10003 9.50887 6.42611C9.87772 6.7522 10.0612 7.16237 10.0612 7.65476C10.0612 8.14715 9.87674 8.53864 9.50887 8.86472C9.14003 9.1908 8.67209 9.35431 8.10313 9.35431C7.53416 9.35431 7.04661 9.1908 6.67777 8.86472ZM9.75117 10.7353V20.7326H6.43449V10.7353H9.75117Z" fill="white"/>
<path d="M20.7916 11.7247C21.5146 12.4722 21.8756 13.4981 21.8756 14.8043V20.5579H18.7257V15.2098C18.7257 14.5511 18.5462 14.0391 18.1881 13.6747C17.8301 13.3103 17.3474 13.1271 16.7431 13.1271C16.1389 13.1271 15.6562 13.3093 15.2981 13.6747C14.9401 14.0391 14.7606 14.5511 14.7606 15.2098V20.5579H11.592V10.7091H14.7606V12.0153C15.0814 11.5799 15.514 11.2361 16.0574 10.9829C16.6009 10.7297 17.212 10.6035 17.8919 10.6035C19.1024 10.6035 20.0696 10.9772 20.7916 11.7247Z" fill="white"/>
</svg>
