<svg width="160" height="41" viewBox="0 0 160 41" fill="none" xmlns="http://www.w3.org/2000/svg">
<g clip-path="url(#clip0_214_2854)">
<path d="M143.258 32.0537C142.203 31.2207 140.653 31.3682 139.788 32.3748L135.256 37.7026C132.85 31.4637 129.984 15.9227 159.739 12.8163C162.262 41.4599 145.952 41.7896 139.085 40.6963L143.6 35.4032C144.465 34.3879 144.312 32.8868 143.258 32.0537Z" fill="#97BF0D"/>
<path d="M133.571 11.1763C132.967 11.8357 133.03 12.851 133.715 13.4324L137.319 16.5041C132.913 17.9272 122.001 19.411 120.523 0.0520441C140.554 -0.911131 140.401 9.65776 139.482 14.0832L135.905 11.0288C135.229 10.4561 134.174 10.5168 133.571 11.1763Z" fill="#E2007A"/>
<path fill-rule="evenodd" clip-rule="evenodd" d="M21.3652 40.2104H19.4458V30.8476C19.4458 29.7109 19.0854 28.7998 18.3735 28.1056C17.6616 27.4201 16.7786 27.073 15.7333 27.073C14.1654 27.073 12.7236 27.4895 11.408 28.3312C11.6783 28.9126 11.8135 29.7022 11.8135 30.7088V40.2104H9.89412V30.7609C9.89412 28.2792 8.5695 27.047 5.92025 27.047C4.4875 27.047 3.28002 27.2032 2.2888 27.5242V40.2104H0.378464V27.8887C0.378464 27.3333 0.35143 26.9776 0.288353 26.8301C0.288353 26.8127 0.189232 26.6565 0 26.3528C1.43276 25.6847 3.39716 25.3463 5.89322 25.3463C7.94774 25.3463 9.44357 25.8669 10.3897 26.9082C11.8946 25.8842 13.6697 25.3723 15.6972 25.3723C17.4183 25.3723 18.797 25.8495 19.8153 26.7954C20.8425 27.7238 21.3562 29.0167 21.3562 30.6567V40.2104H21.3652Z" fill="black"/>
<path fill-rule="evenodd" clip-rule="evenodd" d="M21.3652 40.2104H19.4458V30.8476C19.4458 29.7109 19.0854 28.7998 18.3735 28.1056C17.6616 27.4201 16.7786 27.073 15.7333 27.073C14.1654 27.073 12.7236 27.4895 11.408 28.3312C11.6783 28.9126 11.8135 29.7022 11.8135 30.7088V40.2104H9.89412V30.7609C9.89412 28.2792 8.5695 27.047 5.92025 27.047C4.4875 27.047 3.28002 27.2032 2.2888 27.5242V40.2104H0.378464V27.8887C0.378464 27.3333 0.35143 26.9776 0.288353 26.8301C0.288353 26.8127 0.189232 26.6565 0 26.3528C1.43276 25.6847 3.39716 25.3463 5.89322 25.3463C7.94774 25.3463 9.44357 25.8669 10.3897 26.9082C11.8946 25.8842 13.6697 25.3723 15.6972 25.3723C17.4183 25.3723 18.797 25.8495 19.8153 26.7954C20.8425 27.7238 21.3562 29.0167 21.3562 30.6567V40.2104H21.3652Z" fill="black"/>
<path fill-rule="evenodd" clip-rule="evenodd" d="M27.0241 28.3312L26.1861 26.7086C27.6188 25.7975 29.2498 25.3376 31.0881 25.3376C34.9989 25.3376 36.9543 27.1077 36.9543 30.6481V37.7721C36.9543 38.7179 37.0894 39.4902 37.3598 40.0629L35.2962 40.5054C35.1611 40.167 35.062 39.655 35.0079 38.9695C34.7376 39.2646 34.3411 39.5683 33.8184 39.8633C32.8903 40.3492 31.8811 40.5922 30.7997 40.5922C29.0155 40.5922 27.5738 40.1149 26.4744 39.1691C25.3751 38.1973 24.8164 36.9911 24.8164 35.5334C24.8164 34.0582 25.3571 32.8521 26.4384 31.8976C27.5377 30.9257 29.0516 30.4485 30.9619 30.4485C32.5299 30.4485 33.8905 31.0038 35.0529 32.1232V30.8129C35.0529 29.4159 34.7015 28.418 34.0077 27.8193C33.3859 27.2986 32.4307 27.0383 31.1331 27.0383C29.6734 27.047 28.3037 27.4722 27.0241 28.3312ZM26.8169 35.6028C26.8169 36.4965 27.1413 37.2428 27.7991 37.8415C28.538 38.553 29.5832 38.9001 30.9349 38.9001C32.1694 38.9001 33.1786 38.5617 33.9536 37.8936C34.6655 37.2601 35.0259 36.4965 35.0259 35.6028C35.0259 34.5962 34.6474 33.7805 33.8905 33.1471C33.1516 32.4963 32.1784 32.1666 30.9619 32.1666C29.5472 32.1666 28.4839 32.505 27.772 33.1731C27.1413 33.7805 26.8169 34.5962 26.8169 35.6028Z" fill="black"/>
<path fill-rule="evenodd" clip-rule="evenodd" d="M27.0241 28.3312L26.1861 26.7086C27.6188 25.7975 29.2498 25.3376 31.0881 25.3376C34.9989 25.3376 36.9543 27.1077 36.9543 30.6481V37.7721C36.9543 38.7179 37.0894 39.4902 37.3598 40.0629L35.2962 40.5054C35.1611 40.167 35.062 39.655 35.0079 38.9695C34.7376 39.2646 34.3411 39.5683 33.8184 39.8633C32.8903 40.3492 31.8811 40.5922 30.7997 40.5922C29.0155 40.5922 27.5738 40.1149 26.4744 39.1691C25.3751 38.1973 24.8164 36.9911 24.8164 35.5334C24.8164 34.0582 25.3571 32.8521 26.4384 31.8976C27.5377 30.9257 29.0516 30.4485 30.9619 30.4485C32.5299 30.4485 33.8905 31.0038 35.0529 32.1232V30.8129C35.0529 29.4159 34.7015 28.418 34.0077 27.8193C33.3859 27.2986 32.4307 27.0383 31.1331 27.0383C29.6734 27.047 28.3037 27.4722 27.0241 28.3312ZM26.8169 35.6028C26.8169 36.4965 27.1413 37.2428 27.7991 37.8415C28.538 38.553 29.5832 38.9001 30.9349 38.9001C32.1694 38.9001 33.1786 38.5617 33.9536 37.8936C34.6655 37.2601 35.0259 36.4965 35.0259 35.6028C35.0259 34.5962 34.6474 33.7805 33.8905 33.1471C33.1516 32.4963 32.1784 32.1666 30.9619 32.1666C29.5472 32.1666 28.4839 32.505 27.772 33.1731C27.1413 33.7805 26.8169 34.5962 26.8169 35.6028Z" fill="black"/>
<path fill-rule="evenodd" clip-rule="evenodd" d="M41.0994 25.7367H42.9016L42.8745 28.3052C43.6855 26.3268 45.3165 25.3463 47.7495 25.3463C47.9658 25.3463 48.3082 25.3896 48.7948 25.4851L48.4163 27.1598C48.0649 27.0817 47.7946 27.047 47.6053 27.047C44.5686 27.047 43.0458 29.199 43.0458 33.5029V40.2104H41.0994V25.7367Z" fill="black"/>
<path fill-rule="evenodd" clip-rule="evenodd" d="M41.0994 25.7367H42.9016L42.8745 28.3052C43.6855 26.3268 45.3165 25.3463 47.7495 25.3463C47.9658 25.3463 48.3082 25.3896 48.7948 25.4851L48.4163 27.1598C48.0649 27.0817 47.7946 27.047 47.6053 27.047C44.5686 27.047 43.0458 29.199 43.0458 33.5029V40.2104H41.0994V25.7367Z" fill="black"/>
<path fill-rule="evenodd" clip-rule="evenodd" d="M60.6353 25.2334L62.0861 26.2921L55.0305 32.3054L62.78 39.4034L61.2751 40.5228L52.8858 32.6612V40.2104H50.9395V20.3915H52.8858V32.0191L60.6353 25.2334Z" fill="black"/>
<path fill-rule="evenodd" clip-rule="evenodd" d="M60.6353 25.2334L62.0861 26.2921L55.0305 32.3054L62.78 39.4034L61.2751 40.5228L52.8858 32.6612V40.2104H50.9395V20.3915H52.8858V32.0191L60.6353 25.2334Z" fill="black"/>
<path fill-rule="evenodd" clip-rule="evenodd" d="M66.5285 28.3312L65.6905 26.7086C67.1232 25.7975 68.7542 25.3376 70.5925 25.3376C74.5033 25.3376 76.4587 27.1077 76.4587 30.6481V37.7721C76.4587 38.7179 76.5939 39.4902 76.8642 40.0629L74.8007 40.5054C74.6655 40.167 74.5664 39.655 74.5123 38.9695C74.242 39.2646 73.8455 39.5683 73.3228 39.8633C72.3947 40.3492 71.3855 40.5922 70.3041 40.5922C68.5199 40.5922 67.0782 40.1149 65.9788 39.1691C64.8795 38.1973 64.3208 36.9911 64.3208 35.5334C64.3208 34.0582 64.8615 32.8521 65.9428 31.8976C67.0421 30.9257 68.556 30.4485 70.4663 30.4485C72.0343 30.4485 73.3949 31.0038 74.5573 32.1232V30.8129C74.5573 29.4159 74.2059 28.418 73.5121 27.8193C72.8903 27.2986 71.9351 27.0383 70.6375 27.0383C69.1778 27.047 67.7991 27.4722 66.5285 28.3312ZM66.3213 35.6028C66.3213 36.4965 66.6457 37.2428 67.3125 37.8415C68.0514 38.553 69.0967 38.9001 70.4483 38.9001C71.6828 38.9001 72.6921 38.5617 73.467 37.8936C74.1879 37.2601 74.5393 36.4965 74.5393 35.6028C74.5393 34.5962 74.1609 33.7805 73.4039 33.1471C72.665 32.4963 71.6918 32.1666 70.4753 32.1666C69.0606 32.1666 67.9973 32.505 67.2854 33.1731C66.6457 33.7805 66.3213 34.5962 66.3213 35.6028Z" fill="black"/>
<path fill-rule="evenodd" clip-rule="evenodd" d="M66.5285 28.3312L65.6905 26.7086C67.1232 25.7975 68.7542 25.3376 70.5925 25.3376C74.5033 25.3376 76.4587 27.1077 76.4587 30.6481V37.7721C76.4587 38.7179 76.5939 39.4902 76.8642 40.0629L74.8007 40.5054C74.6655 40.167 74.5664 39.655 74.5123 38.9695C74.242 39.2646 73.8455 39.5683 73.3228 39.8633C72.3947 40.3492 71.3855 40.5922 70.3041 40.5922C68.5199 40.5922 67.0782 40.1149 65.9788 39.1691C64.8795 38.1973 64.3208 36.9911 64.3208 35.5334C64.3208 34.0582 64.8615 32.8521 65.9428 31.8976C67.0421 30.9257 68.556 30.4485 70.4663 30.4485C72.0343 30.4485 73.3949 31.0038 74.5573 32.1232V30.8129C74.5573 29.4159 74.2059 28.418 73.5121 27.8193C72.8903 27.2986 71.9351 27.0383 70.6375 27.0383C69.1778 27.047 67.7991 27.4722 66.5285 28.3312ZM66.3213 35.6028C66.3213 36.4965 66.6457 37.2428 67.3125 37.8415C68.0514 38.553 69.0967 38.9001 70.4483 38.9001C71.6828 38.9001 72.6921 38.5617 73.467 37.8936C74.1879 37.2601 74.5393 36.4965 74.5393 35.6028C74.5393 34.5962 74.1609 33.7805 73.4039 33.1471C72.665 32.4963 71.6918 32.1666 70.4753 32.1666C69.0606 32.1666 67.9973 32.505 67.2854 33.1731C66.6457 33.7805 66.3213 34.5962 66.3213 35.6028Z" fill="black"/>
<path fill-rule="evenodd" clip-rule="evenodd" d="M83.1539 25.7367H87.1007V27.3854H83.1539V40.2104H81.2345V27.3854H78.9097V25.7367H81.2345L81.2615 24.1141C81.2796 22.8993 81.64 21.9361 82.3339 21.2072C83.1088 20.3915 84.1992 19.975 85.6139 19.975C87.1818 19.975 88.4253 20.4263 89.3625 21.32L88.3172 22.665C87.4071 21.9361 86.506 21.5717 85.6139 21.5717C83.9739 21.5717 83.1449 22.3873 83.1449 24.0273V25.7367H83.1539Z" fill="black"/>
<path fill-rule="evenodd" clip-rule="evenodd" d="M83.1539 25.7367H87.1007V27.3854H83.1539V40.2104H81.2345V27.3854H78.9097V25.7367H81.2345L81.2615 24.1141C81.2796 22.8993 81.64 21.9361 82.3339 21.2072C83.1088 20.3915 84.1992 19.975 85.6139 19.975C87.1818 19.975 88.4253 20.4263 89.3625 21.32L88.3172 22.665C87.4071 21.9361 86.506 21.5717 85.6139 21.5717C83.9739 21.5717 83.1449 22.3873 83.1449 24.0273V25.7367H83.1539Z" fill="black"/>
<path fill-rule="evenodd" clip-rule="evenodd" d="M96.8597 25.3376C99.0494 25.3376 100.915 26.0752 102.465 27.5416C104.032 28.9907 104.816 30.7956 104.816 32.9389C104.816 35.0648 104.087 36.8523 102.636 38.3014C101.104 39.8286 99.1845 40.5922 96.8597 40.5922C94.5529 40.5922 92.6515 39.8633 91.1377 38.4142C89.6509 36.9651 88.903 35.1342 88.903 32.9389C88.903 30.8737 89.6599 29.0862 91.1647 27.6023C92.6786 26.1012 94.5709 25.3376 96.8597 25.3376ZM90.9034 32.8868C90.9034 34.6222 91.4441 36.054 92.5254 37.1907C93.6067 38.3274 95.0485 38.8914 96.8507 38.8914C98.6529 38.8914 100.113 38.3014 101.23 37.13C102.293 36.0106 102.825 34.5962 102.825 32.8781C102.825 31.3162 102.293 29.9626 101.23 28.8258C100.086 27.6284 98.6259 27.0383 96.8507 27.0383C95.0124 27.0383 93.5436 27.6197 92.4353 28.7738C91.417 29.8758 90.9034 31.2468 90.9034 32.8868Z" fill="black"/>
<path fill-rule="evenodd" clip-rule="evenodd" d="M96.8597 25.3376C99.0494 25.3376 100.915 26.0752 102.465 27.5416C104.032 28.9907 104.816 30.7956 104.816 32.9389C104.816 35.0648 104.087 36.8523 102.636 38.3014C101.104 39.8286 99.1845 40.5922 96.8597 40.5922C94.5529 40.5922 92.6515 39.8633 91.1377 38.4142C89.6509 36.9651 88.903 35.1342 88.903 32.9389C88.903 30.8737 89.6599 29.0862 91.1647 27.6023C92.6786 26.1012 94.5709 25.3376 96.8597 25.3376ZM90.9034 32.8868C90.9034 34.6222 91.4441 36.054 92.5254 37.1907C93.6067 38.3274 95.0485 38.8914 96.8507 38.8914C98.6529 38.8914 100.113 38.3014 101.23 37.13C102.293 36.0106 102.825 34.5962 102.825 32.8781C102.825 31.3162 102.293 29.9626 101.23 28.8258C100.086 27.6284 98.6259 27.0383 96.8507 27.0383C95.0124 27.0383 93.5436 27.6197 92.4353 28.7738C91.417 29.8758 90.9034 31.2468 90.9034 32.8868Z" fill="black"/>
<path fill-rule="evenodd" clip-rule="evenodd" d="M120.514 31.0472V40.2104H118.594V30.8477C118.594 28.3139 116.963 27.047 113.692 27.047C112.278 27.047 111.106 27.1945 110.178 27.4982V40.2191H108.259V28.0276C108.259 27.3768 108.232 26.9603 108.168 26.7694C108.168 26.752 108.069 26.5611 107.88 26.214C109.385 25.6326 111.322 25.3463 113.683 25.3463C118.243 25.3376 120.514 27.2466 120.514 31.0472Z" fill="black"/>
<path fill-rule="evenodd" clip-rule="evenodd" d="M120.514 31.0472V40.2104H118.594V30.8477C118.594 28.3139 116.963 27.047 113.692 27.047C112.278 27.047 111.106 27.1945 110.178 27.4982V40.2191H108.259V28.0276C108.259 27.3768 108.232 26.9603 108.168 26.7694C108.168 26.752 108.069 26.5611 107.88 26.214C109.385 25.6326 111.322 25.3463 113.683 25.3463C118.243 25.3376 120.514 27.2466 120.514 31.0472Z" fill="black"/>
<path fill-rule="evenodd" clip-rule="evenodd" d="M124.722 25.7367H126.641V40.2104H124.722V25.7367ZM124.316 21.2853C124.316 20.9122 124.451 20.6085 124.722 20.3655C124.992 20.1052 125.317 19.975 125.677 19.975C126.046 19.975 126.353 20.1052 126.605 20.3655C126.875 20.6085 127.011 20.9122 127.011 21.2853C127.011 21.6584 126.875 21.9621 126.605 22.2051C126.353 22.4481 126.046 22.5695 125.677 22.5695C125.307 22.5695 124.992 22.4481 124.722 22.2051C124.451 21.9621 124.316 21.6584 124.316 21.2853Z" fill="black"/>
<path fill-rule="evenodd" clip-rule="evenodd" d="M124.722 25.7367H126.641V40.2104H124.722V25.7367ZM124.316 21.2853C124.316 20.9122 124.451 20.6085 124.722 20.3655C124.992 20.1052 125.317 19.975 125.677 19.975C126.046 19.975 126.353 20.1052 126.605 20.3655C126.875 20.6085 127.011 20.9122 127.011 21.2853C127.011 21.6584 126.875 21.9621 126.605 22.2051C126.353 22.4481 126.046 22.5695 125.677 22.5695C125.307 22.5695 124.992 22.4481 124.722 22.2051C124.451 21.9621 124.316 21.6584 124.316 21.2853Z" fill="black"/>
</g>
<defs>
<clipPath id="clip0_214_2854">
<rect width="160" height="41" fill="white"/>
</clipPath>
</defs>
</svg>
