<svg width="130" height="35" viewBox="0 0 130 35" fill="none" xmlns="http://www.w3.org/2000/svg">
<g clip-path="url(#clip0_214_2813)">
<path d="M22.3259 18.8992C22.3259 18.8992 20.4001 6.25461 0.578491 4.58588C0.578491 4.58588 2.82815 8.30703 3.21685 11.3591C3.21685 11.3591 2.78508 16.9275 7.62466 17.0408C7.61913 17.0356 21.9211 17.8569 22.3259 18.8992Z" fill="#EE2A7B"/>
<path d="M10.7212 27.5733C10.7212 27.5733 0.519329 18.8776 6.55068 18.4023C8.68739 18.4945 10.8183 18.6296 12.9437 18.8022C15.2584 18.9857 17.6107 18.9208 19.8822 19.4932C20.3243 19.6014 20.8962 19.72 21.2631 20.0118C21.9267 20.5408 21.4843 20.7792 20.9989 21.3621C19.596 23.0421 18.3878 24.884 16.8392 26.4336C15.9599 27.3201 14.9134 28.3731 13.7047 28.7887C12.4421 29.2207 11.6975 28.2806 10.7212 27.5733Z" fill="#EE2A7B"/>
<path d="M15.771 0.108154C16.413 0.345761 16.8498 2.14411 16.9793 2.67904C17.2383 3.77022 17.2707 4.89901 17.1465 6.01165C16.9416 7.88038 16.4777 8.94475 18.2636 10.1651C18.2636 10.1651 23.0594 14.216 22.9301 16.9707C22.9301 16.9599 25.293 3.59185 15.771 0.108154Z" fill="#EE2A7B"/>
<path d="M28.9023 35C28.503 34.7083 27.9746 34.5354 27.3161 34.4815C26.6578 34.4277 26.1022 34.4003 25.6492 34.4003C25.196 34.4003 24.7858 34.1633 24.4299 33.6818C24.0739 33.2018 23.896 32.4179 23.896 31.3276V11.6342C23.9176 11.6126 24.0252 11.4828 24.2141 11.2507C24.403 11.0184 24.5755 10.8347 24.732 10.6998C24.8885 10.5649 25.1744 10.3757 25.6006 10.1324C26.0215 9.88949 26.4909 9.70063 27.0035 9.56553C27.516 9.43058 28.2066 9.31178 29.0696 9.1983C29.9382 9.08467 30.9147 9.03107 32.0044 9.03107C35.4248 9.03107 37.8849 9.77085 39.3741 11.2509C40.8629 12.7307 41.6073 15.1936 41.6073 18.6449C41.6073 20.3138 41.3431 21.7618 40.8088 22.9817C40.2747 24.2086 39.5572 25.1484 38.6563 25.8015C37.7554 26.4609 36.8006 26.9361 35.7914 27.2384C34.7826 27.5411 33.7092 27.692 32.5761 27.692C31.044 27.692 29.8193 27.5359 28.9076 27.2226V35H28.9023ZM28.9023 18.3104V23.0471C29.2583 23.1605 29.6413 23.247 30.0515 23.3173C30.4615 23.3821 30.9792 23.4419 31.5998 23.485C32.2202 23.529 32.8027 23.4627 33.337 23.2845C33.8712 23.1066 34.3835 22.853 34.8691 22.5175C35.3602 22.1831 35.7485 21.6487 36.0345 20.9141C36.3257 20.1788 36.466 19.3047 36.466 18.2778C36.466 17.4354 36.3259 16.7006 36.0506 16.0742C35.77 15.453 35.4518 14.9725 35.0851 14.6374C34.7183 14.3025 34.2381 14.054 33.6338 13.8865C33.035 13.7191 32.5332 13.6221 32.1341 13.584C31.7346 13.5464 31.2332 13.568 30.6342 13.6329C30.0354 13.6975 29.6683 13.7464 29.5336 13.768C29.3985 13.7896 29.1993 13.8324 28.9348 13.9029H28.9024C28.8755 13.9029 28.8754 15.372 28.9023 18.3104Z" fill="black"/>
<path d="M47.105 13.7732C47.105 13.7083 47.0943 13.6165 47.0727 13.5083C47.0511 13.4005 47.0457 13.179 47.0564 12.8604C47.0673 12.5363 47.0996 12.2336 47.159 11.9421C47.2129 11.6559 47.3262 11.3263 47.4934 10.9592C47.6608 10.5917 47.8819 10.2787 48.1626 10.0248C48.443 9.77089 48.8205 9.55476 49.2955 9.37655C49.7755 9.1985 50.3366 9.11199 50.9785 9.11199H51.9119C52.4894 9.09036 53.0831 9.09036 53.6978 9.11199C54.3073 9.13362 54.9172 9.16057 55.5321 9.19302C56.1418 9.22546 56.7406 9.32248 57.3178 9.47388C57.8953 9.63061 58.4454 9.81979 58.9686 10.0409C59.4922 10.2624 59.9669 10.581 60.4038 10.9915C60.8354 11.402 61.2131 11.8774 61.5368 12.412C61.8603 12.9466 62.1088 13.6057 62.2866 14.3834C62.4647 15.1611 62.5563 16.0418 62.5563 17.0192V17.2516V17.4837V17.7484V17.9807V18.245V18.515V18.8178V19.1528V19.4877V19.8875V20.4223V20.6865C62.5563 21.5997 62.4536 22.431 62.2544 23.1714C62.0547 23.9168 61.8067 24.5218 61.5046 24.9912C61.2024 25.4617 60.8302 25.8719 60.3876 26.2288C59.9453 26.5852 59.5246 26.8449 59.136 27.0113C58.7478 27.1792 58.2944 27.3143 57.7873 27.4112C57.2746 27.5137 56.8807 27.5731 56.6057 27.5947C56.3305 27.6165 56.0016 27.6275 55.6239 27.6275H51.0219C50.9571 27.6275 50.8547 27.6224 50.7197 27.6118C50.5848 27.6013 50.3366 27.5685 49.97 27.5093C49.6031 27.455 49.2524 27.3687 48.9179 27.2615C48.5833 27.153 48.2111 26.9635 47.8012 26.7098C47.391 26.4556 47.0402 26.1532 46.7488 25.8073C46.4576 25.4617 46.2147 25.0135 46.0153 24.4569C45.8156 23.901 45.7132 23.2791 45.7132 22.588C45.7132 21.3618 45.8697 20.3358 46.1827 19.4982C46.4951 18.6669 46.9648 18.018 47.6013 17.5647C48.2324 17.111 48.9393 16.7922 49.7162 16.614C50.4931 16.436 51.4371 16.3494 52.5486 16.3494C54.4801 16.3494 55.8017 16.22 56.4975 15.9659C57.199 15.7118 57.5497 15.3177 57.5497 14.783C57.5497 14.027 56.8214 13.5137 55.3649 13.2493C53.9081 12.9792 52.3653 12.9251 50.7304 13.0819C49.0851 13.2278 47.8819 13.4599 47.105 13.7732ZM57.6738 18.8126C57.5822 18.926 57.458 19.0551 57.2908 19.2123C57.1236 19.3686 56.7513 19.5742 56.1738 19.8278C55.5968 20.0869 54.998 20.2112 54.372 20.2112C53.2821 20.2112 52.4028 20.3463 51.7233 20.6112C51.0432 20.8759 50.7088 21.2536 50.7088 21.7451C50.7088 22.3231 50.9517 22.7553 51.4428 23.0469C51.9282 23.3388 52.91 23.4849 54.3775 23.4849C54.9763 23.4849 55.4403 23.4795 55.764 23.4689C56.0877 23.4584 56.3844 23.3708 56.6649 23.2203C56.9454 23.0639 57.1397 22.917 57.2474 22.7874C57.3607 22.6524 57.4524 22.3717 57.5338 21.934C57.609 21.5025 57.6578 21.087 57.6685 20.6818C57.663 20.2815 57.6738 19.6607 57.6738 18.8126Z" fill="black"/>
<path d="M77.609 23.2845C77.9209 24.2624 77.9642 25.1638 77.7437 25.985C77.5226 26.812 77.1443 27.3524 76.61 27.6224C75.4556 27.9779 74.3286 28.0812 73.2272 27.9409C72.1269 27.7942 71.1498 27.4927 70.2931 27.0221C69.4348 26.5577 68.7442 25.8774 68.2099 24.9856C67.6767 24.0945 67.4123 23.0845 67.4123 21.951V7.5995C67.3901 6.9083 67.4984 6.33576 67.7464 5.88202C67.9897 5.42812 68.3564 5.09867 68.8474 4.89899C69.3383 4.69931 69.861 4.56938 70.4174 4.51546C70.9727 4.46124 71.6419 4.45606 72.4185 4.49932V9.33892H78.1537V9.58718C78.1537 9.68984 78.1315 9.89485 78.0882 10.2082C78.045 10.5216 77.9756 10.8188 77.8892 11.1102C77.7975 11.4018 77.6521 11.7151 77.4413 12.0607C77.2306 12.4063 76.9776 12.6979 76.6911 12.9463C76.4004 13.195 76.0113 13.3945 75.5258 13.5622C75.0357 13.7298 74.4898 13.8105 73.8914 13.8105C73.3571 13.8105 72.8666 13.8213 72.4235 13.8429L72.4562 21.5562C72.4352 22.1553 72.5584 22.62 72.8234 22.9391C73.0875 23.2629 73.4494 23.4518 73.9076 23.5055C74.3665 23.5605 74.8197 23.5762 75.2733 23.5389C75.7263 23.5055 76.1954 23.458 76.6763 23.3875C77.1339 23.3173 77.4519 23.2845 77.609 23.2845Z" fill="black"/>
<path d="M87.5723 12.4338C87.5723 11.3428 87.3941 10.5596 87.0386 10.079C86.6824 9.59817 86.2776 9.36056 85.8189 9.36056C85.3658 9.36056 84.8104 9.33376 84.1518 9.27953C83.494 9.22545 82.971 9.05242 82.5664 8.76074V27.6224C84.1903 27.7079 85.4363 27.5511 86.315 27.1359C87.1948 26.7255 87.6096 25.8501 87.5669 24.5165V12.4336H87.5723V12.4338Z" fill="black"/>
<path d="M104.712 9.10101C104.692 9.14443 104.697 9.38204 104.729 9.80302C104.761 10.2245 104.755 10.6348 104.712 11.0238C104.669 11.4127 104.578 11.8285 104.449 12.2769C104.319 12.7251 104.045 13.0762 103.633 13.3463C103.223 13.6112 102.696 13.7463 102.048 13.7463C101.115 13.7463 100.392 13.7784 99.879 13.8488C99.3658 13.9135 98.9128 14.0809 98.5145 14.3511C98.1152 14.6158 97.8453 14.9993 97.7158 15.4854C97.5808 15.977 97.5166 16.6413 97.5166 17.4892V28.173C97.1173 27.8814 96.5881 27.6544 95.935 27.4875C95.2827 27.3192 94.7209 27.1892 94.268 27.1033C93.8098 27.0168 93.4048 26.752 93.0542 26.3206C92.698 25.888 92.5199 25.2558 92.5199 24.4356V15.4909C92.5199 15.3561 92.5264 15.1721 92.5368 14.9399C92.5473 14.7077 92.5854 14.3834 92.6547 13.9732C92.7202 13.5626 92.8332 13.1521 92.99 12.7363C93.146 12.3256 93.379 11.8992 93.6907 11.4509C94.0038 11.0078 94.3821 10.6191 94.8248 10.284C95.2674 9.94909 95.844 9.67387 96.5408 9.45225C97.2415 9.23079 98.0246 9.11731 98.8923 9.11731H102.194H103.36H103.742H104.714V9.10117H104.712V9.10101Z" fill="black"/>
<path d="M119.614 23.2845C119.927 24.2624 119.97 25.1638 119.749 25.985C119.528 26.812 119.151 27.3524 118.615 27.6224C117.46 27.9779 116.334 28.0812 115.233 27.9409C114.132 27.7942 113.155 27.4927 112.298 27.0221C111.44 26.5577 110.75 25.8774 110.216 24.9856C109.682 24.0937 109.417 23.0845 109.417 21.951V7.5995C109.396 6.9083 109.504 6.33576 109.752 5.88202C109.995 5.42812 110.361 5.09867 110.852 4.89899C111.343 4.69931 111.861 4.56938 112.417 4.51546C112.972 4.46124 113.642 4.45606 114.418 4.49932V9.33892H120.154V9.58718C120.154 9.68984 120.132 9.89485 120.088 10.2082C120.045 10.5216 119.976 10.8188 119.889 11.1102C119.803 11.4018 119.652 11.7151 119.441 12.0607C119.23 12.4063 118.977 12.6979 118.691 12.9463C118.404 13.195 118.011 13.3945 117.525 13.5622C117.034 13.7298 116.49 13.8105 115.891 13.8105C115.357 13.8105 114.866 13.8213 114.423 13.8429L114.456 21.5562C114.435 22.1553 114.558 22.62 114.824 22.9391C115.087 23.2629 115.449 23.4518 115.908 23.5055C116.367 23.5605 116.819 23.5762 117.273 23.5389C117.726 23.5055 118.196 23.458 118.675 23.3875C119.144 23.3173 119.457 23.2845 119.614 23.2845Z" fill="black"/>
<path d="M129.584 12.4338C129.584 11.3428 129.406 10.5596 129.05 10.079C128.694 9.59817 128.289 9.36056 127.831 9.36056C127.371 9.36056 126.821 9.33376 126.164 9.27953C125.505 9.22545 124.981 9.05242 124.582 8.76074V27.6224C126.206 27.7079 127.452 27.5511 128.332 27.1359C129.211 26.7255 129.627 25.8501 129.584 24.5165V12.4336H129.584V12.4338Z" fill="black"/>
</g>
<defs>
<clipPath id="clip0_214_2813">
<rect width="130" height="35" fill="white"/>
</clipPath>
</defs>
</svg>
