<svg width="28" height="27" viewBox="0 0 28 27" fill="none" xmlns="http://www.w3.org/2000/svg">
<path d="M28 13.3343C28 5.96998 21.732 0 14 0C6.26802 0 0 5.96998 0 13.3343C0 20.6987 6.26802 26.6686 14 26.6686C21.732 26.6686 28 20.6987 28 13.3343Z" fill="#FF0209"/>
<path d="M19.9428 19.2397C19.5257 19.2828 19.0987 19.2903 18.6895 19.2893C15.4972 19.2865 12.3048 19.2837 9.11349 19.2818C8.10906 19.2818 7.01511 19.2509 6.23892 18.6428C5.36435 17.956 5.18235 16.7651 5.11152 15.6875C5.01315 14.2108 5.00528 12.7295 5.08594 11.2518C5.13021 10.4404 5.20793 9.60927 5.57487 8.87467C5.83852 8.34715 6.27827 7.87303 6.84098 7.62379C7.49519 7.33426 8.17989 7.3858 8.88427 7.38486C10.5705 7.38298 12.2566 7.38205 13.9428 7.38017C15.6959 7.3783 17.4499 7.37736 19.203 7.37549C20.0314 7.37549 20.9207 7.39142 21.5965 7.84773C22.4691 8.43616 22.7062 9.55587 22.8154 10.5688C23.0171 12.4343 23.02 14.3195 22.8233 16.1851C22.7416 16.9543 22.6059 17.7677 22.0737 18.3514C21.5464 18.9305 20.7643 19.1535 19.9438 19.2387L19.9428 19.2397Z" fill="white"/>
<path d="M16.8554 13.3363L12.0979 10.7202V15.9524L16.8554 13.3363Z" fill="#FF0209"/>
</svg>
